<?xml version="1.0" encoding="UTF-8"?>
<svg id="Layer_1" data-name="Layer 1" xmlns="http://www.w3.org/2000/svg" xmlns:xlink="http://www.w3.org/1999/xlink" viewBox="0 0 279.55 60.18">
  <defs>
    <style>
      .cls-1 {
        fill: none;
      }

      .cls-2 {
        fill: url(#radial-gradient-3);
      }

      .cls-3 {
        fill: url(#radial-gradient-2);
      }

      .cls-4 {
        fill: url(#radial-gradient);
      }

      .cls-5 {
        clip-path: url(#clippath-1);
      }

      .cls-6 {
        clip-path: url(#clippath-2);
      }

      .cls-7 {
        clip-path: url(#clippath);
      }
    </style>
    <clipPath id="clippath">
      <path class="cls-1" d="M17.08,12.17c-2.81.73-5.48,1.9-8.08,3.18-1.26.62-2.51,1.27-3.76,1.93-1.03.54-.12,2.1.91,1.56,4.97-2.61,10.21-5.41,15.95-5.63,2.95-.12,5.87.41,8.76.92,2.94.52,5.88.97,8.88.91,2.99-.06,6.03-.47,9,0,2.83.45,5.34,1.82,7.89,3.06,2.49,1.22,5.04,2.31,7.59,3.39,6.8,2.91,13.67,5.67,20.55,8.39,7.6,3,15.24,5.93,22.91,8.76,6.04,2.23,12.1,4.44,18.25,6.34.51.16,1.02.31,1.54.46,1.12.32,1.6-1.42.48-1.74-5.84-1.7-11.57-3.8-17.28-5.88-7.71-2.81-15.38-5.74-23.02-8.73-7.01-2.75-14.01-5.55-20.94-8.48-2.53-1.07-5.05-2.15-7.55-3.3-2.29-1.05-4.5-2.3-6.86-3.18-2.83-1.05-5.79-1.17-8.78-1.05-3.01.13-5.95.26-8.94-.16-2.94-.41-5.85-1.07-8.81-1.37-.88-.09-1.76-.14-2.63-.14-2.03,0-4.05.25-6.05.77"/>
    </clipPath>
    <radialGradient id="radial-gradient" cx="-4551.07" cy="3516.6" fx="-4551.07" fy="3516.6" r=".46" gradientTransform="translate(439947.13 -339866.22) scale(96.65)" gradientUnits="userSpaceOnUse">
      <stop offset="0" stop-color="#231f20"/>
      <stop offset=".58" stop-color="#231f20"/>
      <stop offset="1" stop-color="#231f20"/>
    </radialGradient>
    <clipPath id="clippath-1">
      <path class="cls-1" d="M126.96,11.45c-1.99.13-3.99.54-5.91,1.04-2.4.62-4.8,1.45-6.96,2.67-2.7,1.53-5.32,3.21-7.95,4.84-2.15,1.34-4.52,2.36-6.89,3.26-2.27.86-4.69,1.72-7.09,2.04-.48.06-.9.37-.9.9,0,.44.42.97.9.9,2.21-.3,4.35-.95,6.44-1.69,2.27-.8,4.5-1.73,6.64-2.84,2.37-1.22,4.58-2.77,6.87-4.13,1.24-.74,2.46-1.54,3.75-2.19,1.07-.53,2.18-.97,3.32-1.34,2.14-.71,4.36-1.25,6.59-1.55,2.12-.28,4.29-.11,6.41.12,5.25.58,10.35,2.2,15.1,4.48,5.21,2.5,10.03,5.69,14.87,8.82.98.63,1.89-.93.91-1.56-4.37-2.83-8.72-5.71-13.36-8.08-4.72-2.41-9.72-4.26-14.96-5.12-2.08-.34-4.26-.64-6.39-.64-.46,0-.92.01-1.37.04"/>
    </clipPath>
    <radialGradient id="radial-gradient-2" cx="-4522.34" cy="3494.66" fx="-4522.34" fy="3494.66" r=".46" gradientTransform="translate(249032.52 -192323.35) scale(55.04)" xlink:href="#radial-gradient"/>
    <clipPath id="clippath-2">
      <path class="cls-1" d="M205.7,6.89c-3.3.79-6.4,2.29-9.37,3.9-7.63,4.14-14.47,9.58-21.83,14.16-1.68,1.04-3.38,2.06-5.15,2.95-.36.18-.72.35-1.09.51-.29.13-.46.2-.84.34-1.06.39-2.18.63-3.26.95-5.88,1.77-11.56,4.21-17.02,7.02-4.83,2.48-9.5,5.27-14.1,8.17-3.42,2.16-6.79,4.45-10.3,6.46-.62.35-1.24.69-1.88,1.01-1.04.52-.13,2.08.91,1.56,3.21-1.59,6.2-3.66,9.21-5.58,4.29-2.75,8.62-5.45,13.08-7.93,5.18-2.87,10.54-5.45,16.11-7.48,1.47-.54,2.96-1.03,4.47-1.49,1.08-.33,2.2-.57,3.26-.95,1.6-.58,3.11-1.39,4.58-2.23,3.91-2.23,7.64-4.78,11.35-7.31,3.22-2.2,6.4-4.5,9.73-6.53,5.27-3.22,10.98-6.15,17.26-6.44,6.92-.32,13.68,1.82,20.16,4.02,13.09,4.45,25.8,9.98,38,16.49,1.48.79,2.95,1.59,4.41,2.41,1.02.57,1.93-.99.91-1.56-12.22-6.82-24.99-12.67-38.15-17.44-6.54-2.36-13.23-4.77-20.18-5.54-1.25-.14-2.51-.21-3.77-.21-2.19,0-4.38.23-6.52.74"/>
    </clipPath>
    <radialGradient id="radial-gradient-3" cx="-4560.55" cy="3522.66" fx="-4560.55" fy="3522.66" r=".46" gradientTransform="translate(556506.1 -429673.81) scale(121.98)" xlink:href="#radial-gradient"/>
  </defs>
  <g class="cls-7">
    <rect class="cls-4" x="4.22" y="11.41" width="124.85" height="34.36"/>
  </g>
  <g class="cls-5">
    <rect class="cls-3" x="91.25" y="11.4" width="72.77" height="16.03"/>
  </g>
  <g class="cls-6">
    <rect class="cls-2" x="119.82" y="6.15" width="155.51" height="48.28"/>
  </g>
</svg>